Coordinates
version=1
nRows=6
nColumns=63
inDegrees=yes

Units are S.I. units (second, meters, Newtons, ...)
If the header above contains a line with 'inDegrees', this indicates whether rotational values are in degrees (yes) or radians (no).

endheader
time	pelvis_tilt	pelvis_list	pelvis_rotation	pelvis_tx	pelvis_ty	pelvis_tz	hip_flexion_r	hip_adduction_r	hip_rotation_r	knee_angle_r	knee_angle_r_beta	ankle_angle_r	subtalar_angle_r	mtp_angle_r	hip_flexion_l	hip_adduction_l	hip_rotation_l	knee_angle_l	knee_angle_l_beta	ankle_angle_l	subtalar_angle_l	mtp_angle_l	L5_S1_Flex_Ext	L5_S1_Lat_Bending	L5_S1_axial_rotation	L4_L5_Flex_Ext	L4_L5_Lat_Bending	L4_L5_axial_rotation	L3_L4_Flex_Ext	L3_L4_Lat_Bending	L3_L4_axial_rotation	L2_L3_Flex_Ext	L2_L3_Lat_Bending	L2_L3_axial_rotation	L1_L2_Flex_Ext	L1_L2_Lat_Bending	L1_L2_axial_rotation	L1_T12_Flex_Ext	L1_T12_Lat_Bending	L1_T12_axial_rotation	Abs_r3	Abs_r2	Abs_r1	Abs_t1	Abs_t2	neck_flexion	neck_bending	neck_rotation	arm_flex_r	arm_add_r	arm_rot_r	elbow_flex_r	pro_sup_r	wrist_flex_r	wrist_dev_r	arm_flex_l	arm_add_l	arm_rot_l	elbow_flex_l	pro_sup_l	wrist_flex_l	wrist_dev_l
      6.73913043	     -2.19143718	     -2.13019167	    109.80412903	      0.07066976	      1.02221603	      0.48390299	     -3.82925267	     -0.84532237	     -9.92254535	      5.54408480	      0.09676253	     23.79910328	     -1.10898949	      0.00000000	     -2.67283327	      3.11369555	     18.61983684	      4.55099526	      0.07942985	     21.09782005	     -7.26805357	      0.00000000	      0.30503088	     -0.01093375	     -2.17360195	      0.56647285	     -0.01454188	     -2.30945208	      0.50113523	     -0.02658431	     -2.30945208	      0.34861979	     -0.02658431	     -1.90190171	      0.28325167	     -0.02229609	     -1.76605159	      0.17429464	     -0.01693637	     -1.63020147	      2.17880506	     -0.12368471	    -12.08892198	      0.00000000	      0.00000000	     19.24137362	      5.50313330	     12.04290770	      5.40939726	    -21.25881741	     42.97918602	     76.09638734	     76.52994345	      0.92980288	     10.41036093	      7.50401528	    -25.62190528	     53.25146447	     79.25297632	     65.50348801	    -15.67781820	      0.92127361
      6.76086957	     -2.20953514	     -2.27395936	    109.76464522	      0.07034872	      1.02143823	      0.48419798	     -3.67753468	     -0.96171215	     -9.76470918	      5.56089805	      0.09705598	     23.83807145	     -1.23958377	      0.00000000	     -2.47361696	      3.24025780	     18.70638313	      4.63601671	      0.08091376	     21.11966189	     -7.37446592	      0.00000000	      0.28260618	      0.00937845	     -2.14685883	      0.52482793	      0.01247334	     -2.28103751	      0.46429369	      0.02280276	     -2.28103751	      0.32299060	      0.02280276	     -1.87850148	      0.26242810	      0.01912453	     -1.74432280	      0.16148117	      0.01452722	     -1.61014412	      2.01862767	      0.10609089	    -11.94018475	      0.00000000	      0.00000000	     20.40215570	      4.48977062	     11.92290715	      5.38361281	    -21.27152134	     43.08450373	     76.72902963	     74.97902586	     -0.55585309	     11.34102345	      7.31738212	    -25.13829401	     52.25691707	     78.50371463	     67.36267026	    -12.96410002	      1.30141259
      6.78260870	     -2.34407757	     -2.41570513	    109.63293608	      0.07025905	      1.02071352	      0.48457661	     -3.53287875	     -1.20948134	     -9.59246104	      5.62295690	      0.09813911	     23.92921919	     -1.28405782	      0.00000000	     -2.32024388	      3.47830942	     18.60961501	      4.70198218	      0.08206507	     20.96051601	     -7.50318814	      0.00000000	      0.24497180	      0.00937499	     -2.14431083	      0.45493713	      0.01246874	     -2.27833025	      0.40246417	      0.02279436	     -2.27833025	      0.27997827	      0.02279436	     -1.87627197	      0.22748082	      0.01911749	     -1.74225255	      0.13997689	      0.01452187	     -1.60823312	      1.74980909	      0.10605181	    -11.92601352	      0.00000000	      0.00000000	     21.36489870	      3.79859982	     11.58445239	      5.72929142	    -21.09340542	     43.72810756	     76.61635495	     74.37996596	     -0.35288340	     11.51093432	      7.06833205	    -24.76735077	     51.94172988	     77.78580163	     67.03053346	    -12.21523588	      1.40513755
      6.80434783	     -2.36220994	     -2.48945019	    109.14309775	      0.07034038	      1.01999401	      0.48452650	     -3.38765044	     -1.35664154	     -8.91725529	      5.68654080	      0.09924886	     24.04039457	     -1.34743688	      0.00000000	     -2.31038408	      3.58657393	     18.51657636	      4.61475190	      0.08054261	     20.77727618	     -8.11217864	      0.00000000	      0.21099130	      0.02392632	     -2.10195659	      0.39183195	      0.03182201	     -2.23332888	      0.34663761	      0.05817446	     -2.23332888	      0.24114196	      0.05817446	     -1.83921202	      0.19592652	      0.04879056	     -1.70783973	      0.12056043	      0.03706187	     -1.57646744	      1.50708978	      0.27065934	    -11.69045198	      0.00000000	      0.00000000	     21.65920012	      3.37173314	     11.12400196	      6.45466054	    -21.09061575	     45.57690663	     76.05980921	     71.60941065	     -0.16622609	     11.67144615	      6.55618759	    -24.13891578	     51.09672219	     76.37274303	     66.96143313	     -9.40699503	      1.00705787
      6.82608696	     -2.42882544	     -2.58753416	    108.57812627	      0.07049496	      1.01920315	      0.48428909	     -3.23185258	     -1.56562121	     -8.23923851	      5.73002922	      0.10000788	     24.19589389	     -1.30614449	      0.00000000	     -2.32780496	      3.75599444	     18.50995753	      4.49269169	      0.07841226	     20.58292253	     -9.03017236	      0.00000000	      0.17959443	      0.02986656	     -2.02655338	      0.33352482	      0.03972253	     -2.15321297	      0.29505569	      0.07261756	     -2.15321297	      0.20525847	      0.07261756	     -1.77323421	      0.16677139	      0.06090390	     -1.64657462	      0.10262026	      0.04626331	     -1.51991504	      1.28282506	      0.33785654	    -11.27108194	      0.00000000	      0.00000000	     21.75362414	      3.19446551	     10.75957631	      7.18809848	    -21.04601801	     47.74186146	     75.19315016	     69.91505790	      0.05413139	     11.80561559	      6.38807465	    -23.58896055	     50.92370661	     74.92847659	     69.75676097	     -8.68035501	      0.70078128
      6.84782609	     -2.51489723	     -2.65133401	    107.88181232	      0.07103750	      1.01836772	      0.48384513	     -3.05382938	     -1.78603268	     -7.60862891	      5.87448343	      0.10252908	     24.60914297	     -0.96718655	      0.00000000	     -2.37142588	      3.90650176	     18.16786860	      4.43545111	      0.07741323	     20.58317734	     -9.57225800	      0.00000000	      0.14472156	      0.03007371	     -1.88172273	      0.26876240	      0.03999804	     -1.99933040	      0.23776304	      0.07312123	     -1.99933040	      0.16540227	      0.07312123	     -1.64650739	      0.13438844	      0.06132632	     -1.52889972	      0.08269390	      0.04658418	     -1.41129205	      1.03373160	      0.34019986	    -10.46557732	      0.00000000	      0.00000000	     21.69113639	      3.12176162	     10.20451415	      7.68292479	    -20.87521603	     49.53812899	     74.10288523	     69.72696481	      0.61921806	     12.06742307	      6.69495498	    -23.11178027	     51.71569953	     73.43467337	     71.31339792	     -8.46936706	      0.46570569
